# xmcd
#
# Track frame offsets: 
#        150
#        19809
#        34850
#        56563
#        85794
#        105364
#        126911
#        144616
#        174448
#
# Disc length: 2677 seconds
#
# Revision: 1
# Processed by: cddbd v1.5.2PL0 Copyright (c) Steve Scherf et al.
# Submitted via: ExactAudioCopyFreeDBPlugin 1.0
#
DISCID=700a7309
DTITLE=The Flying Eyes - Lowlands
DYEAR=2013
DGENRE=Rock
TTITLE0=Long Gone
TTITLE1=Under Iron Feet
TTITLE2=Rolling Thunder
TTITLE3=Smile
TTITLE4=Alive In Time
TTITLE5=Lowlands
TTITLE6=Eye Of The Storm
TTITLE7=Comfort Machine
TTITLE8=Surrender
EXTD=
EXTT0=
EXTT1=
EXTT2=
EXTT3=
EXTT4=
EXTT5=
EXTT6=
EXTT7=
EXTT8=
PLAYORDER=
